<svg width="21" height="11" viewBox="0 0 21 11" fill="none" xmlns="http://www.w3.org/2000/svg">
<path fill-rule="evenodd" clip-rule="evenodd" d="M10.5 11C16.299 11 21 9.65685 21 8V6H18.3264C16.4037 5.38625 13.6097 5 10.5 5C7.39025 5 4.59625 5.38625 2.67363 6H0V8C0 9.65685 4.70101 11 10.5 11Z" fill="#6E5E6A"/>
<ellipse cx="10.5" cy="6" rx="10.5" ry="3" fill="#413A3F"/>
<path fill-rule="evenodd" clip-rule="evenodd" d="M10.5 7.54545C14.0899 7.54545 17 6.75178 17 5.77273V4.59091H15.3449C14.1547 4.22824 12.4251 4 10.5 4C8.57491 4 6.84529 4.22824 5.65509 4.59091H4V5.77273C4 5.77273 4 5.77273 4 5.77273C4.00001 6.75178 6.91015 7.54545 10.5 7.54545Z" fill="#6E5E6A"/>
<rect x="4" y="2" width="13" height="3" fill="#6E5E6A"/>
<path fill-rule="evenodd" clip-rule="evenodd" d="M10.5 4.95238C14.0899 4.95238 17 4.12091 17 3.09524V1.85715H15.3449C14.1547 1.47721 12.4251 1.2381 10.5 1.2381C8.57491 1.2381 6.84529 1.47721 5.65509 1.85715H4V3.09524C4 3.09524 4 3.09524 4 3.09524C4.00001 4.12091 6.91015 4.95238 10.5 4.95238Z" fill="#F9F9F9"/>
<ellipse cx="10.5" cy="1.85714" rx="6.5" ry="1.85714" fill="#6E5E6A"/>
</svg>
