<svg width="26" height="26" viewBox="0 0 26 26" fill="none" xmlns="http://www.w3.org/2000/svg">
<circle cx="13" cy="13" r="12.5" fill="#B4CA68" stroke="#86964D"/>
<path d="M4 7C3.44771 7 3 7.44772 3 8V12C2.44771 12 2 12.4477 2 13V16C2 16.5523 2.44771 17 3 17H5V20H7V16H9C9.55228 16 10 15.5523 10 15V12C10 11.4477 9.55228 11 9 11V8C9 7.44772 8.55228 7 8 7H4Z" fill="#86964D"/>
<path d="M14.875 4.15385C14.875 3.5166 14.3713 3 13.75 3H9.25C8.62869 3 8.125 3.5166 8.125 4.15385V6.00384C9.17133 6.06837 10 6.93741 10 8V10.2676C10.5978 10.6134 11 11.2597 11 12V15C11 15.572 10.7599 16.0879 10.375 16.4524V18H12.625V14.5385H14.875C15.4963 14.5385 16 14.0219 16 13.3846V9.92308C16 9.28583 15.4963 8.76923 14.875 8.76923V4.15385Z" fill="#86964D"/>
<path fill-rule="evenodd" clip-rule="evenodd" d="M23.1823 19.3529C21.0619 22.7442 17.2944 25 13 25C8.70561 25 4.93808 22.7442 2.81772 19.3529C4.93808 17.9399 8.70561 17 13 17C17.2944 17 21.0619 17.9399 23.1823 19.3529ZM9 19C8.44771 19 8 19.4477 8 20V21C8 21.5523 8.44771 22 9 22H8.5C8.22385 22 8 22.2239 8 22.5C8 22.7761 8.22385 23 8.5 23H9.81818V24H10.7273V23H15.2727V24H16.1818V23H17.5C17.7761 23 18 22.7761 18 22.5C18 22.2239 17.7761 22 17.5 22H17C17.5523 22 18 21.5523 18 21V20C18 19.4477 17.5523 19 17 19H9Z" fill="#86964D"/>
</svg>
