<svg width="26" height="26" viewBox="0 0 26 26" fill="none" xmlns="http://www.w3.org/2000/svg">
<circle cx="13" cy="13" r="12.5" fill="#868686" stroke="#868686"/>
<path d="M5.50821 3.62536C2.7601 5.82438 1 9.20663 1 13C1 15.3084 1.65182 17.4646 2.78145 19.2945L3.88559 18.8573C4.02142 18.8035 4.11383 18.6771 4.12296 18.5325L4.76569 9.35161C4.77817 9.15397 4.9437 9 5.14374 9H5.94717C6.14722 9 6.31274 9.15397 6.32523 9.35161L6.88013 17.1413C6.89621 17.3961 7.15936 17.5609 7.39886 17.466L8.33765 17.0943C8.48145 17.0373 8.57574 16.8995 8.57574 16.7461V11.375C8.57574 11.1679 8.74536 11 8.95456 11H22.1507C22.1914 11 22.2318 11.0065 22.2704 11.0192L24.3615 11.7093C24.4415 11.7357 24.5102 11.7877 24.5569 11.8571L24.9898 12.4998C24.7532 6.72921 20.4414 2.00975 14.8557 1.14262C14.8494 1.15606 14.8428 1.16939 14.836 1.1826C15.5231 1.49918 16 2.19389 16 3C16 4.10457 15.1046 5 14 5C13.6289 5 13.2814 4.89893 12.9836 4.72282C12.8759 5.44558 12.2527 6 11.5 6C11.2688 6 11.0498 5.9477 10.8543 5.85429C10.9477 6.04985 11 6.26881 11 6.5C11 7.32843 10.3284 8 9.5 8C9.11581 8 8.76538 7.85557 8.5 7.61805C8.23462 7.85557 7.88419 8 7.5 8C6.67157 8 6 7.32843 6 6.5C6 5.74728 6.55441 5.12407 7.27716 5.01643C7.10104 4.71857 7 4.37109 7 4C7 3.9836 7.00018 3.96725 7.00058 3.95095C7.00089 3.93861 7.00131 3.92629 7.00183 3.914C6.84494 3.96969 6.67599 4 6.5 4C6.11978 4 5.77258 3.85853 5.50821 3.62536Z" fill="#D9D9D9"/>
<path d="M20.697 22.2067V21.875C20.697 21.6679 20.5274 21.5 20.3182 21.5H15.0151C14.8059 21.5 14.6364 21.6679 14.6364 21.875V24.8894C16.925 24.5773 19.0083 23.62 20.697 22.2067Z" fill="#D9D9D9"/>
<path d="M11.9849 15.5C11.7756 15.5 11.606 15.6679 11.606 15.875V18.125C11.606 18.3321 11.7756 18.5 11.9849 18.5H14.2576C14.4668 18.5 14.6364 18.3321 14.6364 18.125V15.875C14.6364 15.6679 14.4668 15.5 14.2576 15.5H11.9849Z" fill="#D9D9D9"/>
<path d="M16.5303 15.5C16.3211 15.5 16.1515 15.6679 16.1515 15.875V18.125C16.1515 18.3321 16.3211 18.5 16.5303 18.5H18.803C19.0122 18.5 19.1818 18.3321 19.1818 18.125V15.875C19.1818 15.6679 19.0122 15.5 18.803 15.5H16.5303Z" fill="#D9D9D9"/>
<path d="M21.0757 15.5C20.8665 15.5 20.697 15.6679 20.697 15.875V18.125C20.697 18.3321 20.8665 18.5 21.0757 18.5H23.3485C23.5577 18.5 23.7273 18.3321 23.7273 18.125V15.875C23.7273 15.6679 23.5577 15.5 23.3485 15.5H21.0757Z" fill="#D9D9D9"/>
</svg>
