<svg width="26" height="26" viewBox="0 0 26 26" fill="none" xmlns="http://www.w3.org/2000/svg">
<circle cx="13" cy="13" r="12.5" fill="#F5C9C9" stroke="#E05E56"/>
<path fill-rule="evenodd" clip-rule="evenodd" d="M3.95093 20.8815C5.93642 18.5362 9.24895 17 13 17C16.751 17 20.0636 18.5362 22.0491 20.8815C19.8492 23.4052 16.6108 25 13 25C9.38916 25 6.15082 23.4052 3.95093 20.8815Z" fill="#E05E56"/>
<path d="M10 9L11.283 10.3441V9H12.566V11.6882L15 14.2381H13.2075V18L11.283 17.254V14.7143H8.717V18L6.79249 19.746V14.2381H5L10 9Z" fill="#E05E56"/>
<path d="M16.75 13C16.5429 13 16.375 13.1722 16.375 13.3846V14.9231C16.1679 14.9231 16 15.0953 16 15.3077V16.4615C16 16.674 16.1679 16.8462 16.375 16.8462H17.125V18H17.875V16.4615H18.625C18.8321 16.4615 19 16.2893 19 16.0769V14.9231C19 14.7107 18.8321 14.5385 18.625 14.5385V13.3846C18.625 13.1722 18.4571 13 18.25 13H16.75Z" fill="#E05E56"/>
<path fill-rule="evenodd" clip-rule="evenodd" d="M13 5C14.1046 5 15 4.10457 15 3C15 1.89543 14.1046 1 13 1C11.8954 1 11 1.89543 11 3C11 3.02881 11.0006 3.05748 11.0018 3.086C10.8449 3.03031 10.676 3 10.5 3C9.67157 3 9 3.67157 9 4.5C9 5.15441 9.41907 5.71095 10.0035 5.91588C10.0012 5.94361 10 5.97167 10 6C10 6.55228 10.4477 7 11 7C11.5523 7 12 6.55228 12 6C12.5523 6 13 5.55228 13 5Z" fill="#E05E56"/>
<circle cx="12.5" cy="8" r="0.5" fill="#E05E56"/>
<circle cx="13.75" cy="6.75" r="0.75" fill="#E05E56"/>
</svg>
