<svg width="6" height="9" viewBox="0 0 6 9" fill="none" xmlns="http://www.w3.org/2000/svg">
<mask id="path-1-outside-1_16_799" maskUnits="userSpaceOnUse" x="0" y="0" width="6" height="9" fill="black">
<rect fill="white" width="6" height="9"/>
<path d="M3.00446 7.28571C2.81462 7.28571 2.66071 7.13181 2.66071 6.94196V6.35885C2.66071 6.169 2.81462 6.0151 3.00446 6.0151V6.0151C3.19431 6.0151 3.34821 6.169 3.34821 6.35885V6.94196C3.34821 7.13181 3.19431 7.28571 3.00446 7.28571V7.28571ZM3.00446 2.1449C2.81462 2.1449 2.66071 1.991 2.66071 1.80115V1.34375C2.66071 1.1539 2.81462 1 3.00446 1V1C3.19431 1 3.34821 1.1539 3.34821 1.34375V1.80115C3.34821 1.991 3.19431 2.1449 3.00446 2.1449V2.1449ZM2.98214 6.45959C2.66369 6.45959 2.37351 6.42517 2.11161 6.35633C1.8497 6.28449 1.62351 6.18871 1.43304 6.06898C1.37717 6.03331 1.32514 5.99631 1.27694 5.95798C1.10155 5.81852 1.14894 5.56251 1.33358 5.43557L1.45219 5.35404C1.5877 5.26088 1.77472 5.30836 1.89732 5.41796V5.41796C1.98065 5.4868 2.07738 5.54816 2.1875 5.60204C2.3006 5.65592 2.42708 5.69782 2.56696 5.72776C2.70685 5.75769 2.85714 5.77265 3.01786 5.77265C3.17262 5.77265 3.31845 5.75918 3.45536 5.73224C3.59226 5.70531 3.7128 5.6634 3.81696 5.60653C3.92411 5.54966 4.00744 5.47633 4.06696 5.38653C4.12649 5.29374 4.15625 5.18449 4.15625 5.05878C4.15625 4.90313 4.09375 4.78041 3.96875 4.69061C3.84375 4.59782 3.6756 4.52449 3.46429 4.47061C3.25595 4.41673 3.02083 4.37184 2.75893 4.33592C2.5625 4.30599 2.36756 4.26258 2.17411 4.20571C1.98363 4.14585 1.80804 4.06503 1.64732 3.96327C1.48958 3.8615 1.3631 3.73429 1.26786 3.58163C1.17262 3.42599 1.125 3.23741 1.125 3.01592C1.125 2.83932 1.1622 2.68218 1.23661 2.54449C1.31101 2.4068 1.4122 2.28857 1.54018 2.1898C1.66815 2.09102 1.81399 2.0102 1.97768 1.94735C2.14435 1.88449 2.31845 1.8381 2.5 1.80816C2.68452 1.77823 2.86756 1.76327 3.04911 1.76327C3.35565 1.76327 3.62946 1.80367 3.87054 1.88449C4.11458 1.96231 4.31845 2.06109 4.48214 2.18082C4.52319 2.2103 4.56143 2.23997 4.59688 2.26981C4.75706 2.40469 4.70559 2.63921 4.53026 2.75371L4.3929 2.84341C4.26757 2.92526 4.09614 2.87497 3.98214 2.77796V2.77796C3.90774 2.71211 3.81994 2.65374 3.71875 2.60286C3.61756 2.55197 3.50595 2.51306 3.38393 2.48612C3.2619 2.45918 3.13393 2.44571 3 2.44571C2.89583 2.44571 2.78125 2.45469 2.65625 2.47265C2.53423 2.48762 2.41964 2.51755 2.3125 2.56245C2.20536 2.60435 2.11607 2.66272 2.04464 2.73755C1.97619 2.81238 1.94196 2.90816 1.94196 3.0249C1.94196 3.16259 1.99405 3.27483 2.09821 3.36163C2.20536 3.44544 2.34821 3.51279 2.52679 3.56367C2.70833 3.61456 2.9122 3.65796 3.13839 3.69388C3.29018 3.71782 3.45089 3.74775 3.62054 3.78367C3.79315 3.81959 3.95982 3.86748 4.12054 3.92735C4.28423 3.98721 4.43155 4.06503 4.5625 4.16082C4.69643 4.25361 4.80208 4.36884 4.87946 4.50653C4.95982 4.64422 5 4.81184 5 5.00939C5 5.20993 4.9628 5.38952 4.88839 5.54816C4.81399 5.70381 4.71131 5.84 4.58036 5.95673C4.4494 6.07048 4.29762 6.16476 4.125 6.23959C3.95536 6.31442 3.77232 6.3698 3.57589 6.40571C3.38244 6.44163 3.18452 6.45959 2.98214 6.45959Z"/>
</mask>
<path d="M3.00446 7.28571C2.81462 7.28571 2.66071 7.13181 2.66071 6.94196V6.35885C2.66071 6.169 2.81462 6.0151 3.00446 6.0151V6.0151C3.19431 6.0151 3.34821 6.169 3.34821 6.35885V6.94196C3.34821 7.13181 3.19431 7.28571 3.00446 7.28571V7.28571ZM3.00446 2.1449C2.81462 2.1449 2.66071 1.991 2.66071 1.80115V1.34375C2.66071 1.1539 2.81462 1 3.00446 1V1C3.19431 1 3.34821 1.1539 3.34821 1.34375V1.80115C3.34821 1.991 3.19431 2.1449 3.00446 2.1449V2.1449ZM2.98214 6.45959C2.66369 6.45959 2.37351 6.42517 2.11161 6.35633C1.8497 6.28449 1.62351 6.18871 1.43304 6.06898C1.37717 6.03331 1.32514 5.99631 1.27694 5.95798C1.10155 5.81852 1.14894 5.56251 1.33358 5.43557L1.45219 5.35404C1.5877 5.26088 1.77472 5.30836 1.89732 5.41796V5.41796C1.98065 5.4868 2.07738 5.54816 2.1875 5.60204C2.3006 5.65592 2.42708 5.69782 2.56696 5.72776C2.70685 5.75769 2.85714 5.77265 3.01786 5.77265C3.17262 5.77265 3.31845 5.75918 3.45536 5.73224C3.59226 5.70531 3.7128 5.6634 3.81696 5.60653C3.92411 5.54966 4.00744 5.47633 4.06696 5.38653C4.12649 5.29374 4.15625 5.18449 4.15625 5.05878C4.15625 4.90313 4.09375 4.78041 3.96875 4.69061C3.84375 4.59782 3.6756 4.52449 3.46429 4.47061C3.25595 4.41673 3.02083 4.37184 2.75893 4.33592C2.5625 4.30599 2.36756 4.26258 2.17411 4.20571C1.98363 4.14585 1.80804 4.06503 1.64732 3.96327C1.48958 3.8615 1.3631 3.73429 1.26786 3.58163C1.17262 3.42599 1.125 3.23741 1.125 3.01592C1.125 2.83932 1.1622 2.68218 1.23661 2.54449C1.31101 2.4068 1.4122 2.28857 1.54018 2.1898C1.66815 2.09102 1.81399 2.0102 1.97768 1.94735C2.14435 1.88449 2.31845 1.8381 2.5 1.80816C2.68452 1.77823 2.86756 1.76327 3.04911 1.76327C3.35565 1.76327 3.62946 1.80367 3.87054 1.88449C4.11458 1.96231 4.31845 2.06109 4.48214 2.18082C4.52319 2.2103 4.56143 2.23997 4.59688 2.26981C4.75706 2.40469 4.70559 2.63921 4.53026 2.75371L4.3929 2.84341C4.26757 2.92526 4.09614 2.87497 3.98214 2.77796V2.77796C3.90774 2.71211 3.81994 2.65374 3.71875 2.60286C3.61756 2.55197 3.50595 2.51306 3.38393 2.48612C3.2619 2.45918 3.13393 2.44571 3 2.44571C2.89583 2.44571 2.78125 2.45469 2.65625 2.47265C2.53423 2.48762 2.41964 2.51755 2.3125 2.56245C2.20536 2.60435 2.11607 2.66272 2.04464 2.73755C1.97619 2.81238 1.94196 2.90816 1.94196 3.0249C1.94196 3.16259 1.99405 3.27483 2.09821 3.36163C2.20536 3.44544 2.34821 3.51279 2.52679 3.56367C2.70833 3.61456 2.9122 3.65796 3.13839 3.69388C3.29018 3.71782 3.45089 3.74775 3.62054 3.78367C3.79315 3.81959 3.95982 3.86748 4.12054 3.92735C4.28423 3.98721 4.43155 4.06503 4.5625 4.16082C4.69643 4.25361 4.80208 4.36884 4.87946 4.50653C4.95982 4.64422 5 4.81184 5 5.00939C5 5.20993 4.9628 5.38952 4.88839 5.54816C4.81399 5.70381 4.71131 5.84 4.58036 5.95673C4.4494 6.07048 4.29762 6.16476 4.125 6.23959C3.95536 6.31442 3.77232 6.3698 3.57589 6.40571C3.38244 6.44163 3.18452 6.45959 2.98214 6.45959Z" fill="#B4CA68"/>
<path d="M2.11161 6.35633L1.84708 7.32076L1.85739 7.32347L2.11161 6.35633ZM1.43304 6.06898L0.894837 6.91183L0.900864 6.91562L1.43304 6.06898ZM2.1875 5.60204L1.74799 6.50034L1.75742 6.50483L2.1875 5.60204ZM2.56696 5.72776L2.35772 6.70562L2.35772 6.70562L2.56696 5.72776ZM3.81696 5.60653L3.34809 4.72319L3.33777 4.72882L3.81696 5.60653ZM4.06696 5.38653L4.90047 5.93904L4.90461 5.93279L4.90866 5.92648L4.06696 5.38653ZM3.96875 4.69061L3.37271 5.49357L3.37898 5.49822L3.38532 5.50278L3.96875 4.69061ZM3.46429 4.47061L3.21391 5.43877L3.21722 5.43961L3.46429 4.47061ZM2.75893 4.33592L2.60829 5.32451L2.61566 5.32563L2.62306 5.32665L2.75893 4.33592ZM2.17411 4.20571L1.87428 5.15971L1.88315 5.16249L1.89206 5.16512L2.17411 4.20571ZM1.64732 3.96327L1.10517 4.80359L1.11233 4.80812L1.64732 3.96327ZM1.26786 3.58163L0.414838 4.10358L0.419434 4.11095L1.26786 3.58163ZM1.23661 2.54449L2.11637 3.0199L2.11637 3.0199L1.23661 2.54449ZM1.54018 2.1898L0.929178 1.39817L0.929176 1.39817L1.54018 2.1898ZM1.97768 1.94735L1.62479 1.01166L1.6192 1.01381L1.97768 1.94735ZM2.5 1.80816L2.33988 0.821062L2.33733 0.821484L2.5 1.80816ZM3.87054 1.88449L3.55268 2.83263L3.55969 2.83498L3.56672 2.83722L3.87054 1.88449ZM4.48214 2.18082L3.89176 2.98798L3.89871 2.99298L4.48214 2.18082ZM3.71875 2.60286L4.16801 1.70945L4.168 1.70945L3.71875 2.60286ZM3.38393 2.48612L3.16835 3.46261L3.16835 3.46261L3.38393 2.48612ZM2.65625 2.47265L2.77799 3.46522L2.78824 3.46396L2.79846 3.46249L2.65625 2.47265ZM2.3125 2.56245L2.67674 3.49375L2.68792 3.48938L2.69899 3.48474L2.3125 2.56245ZM2.04464 2.73755L1.32129 2.04708L1.31396 2.05475L1.30679 2.06259L2.04464 2.73755ZM2.09821 3.36163L1.45804 4.12986L1.46992 4.13976L1.4821 4.14929L2.09821 3.36163ZM2.52679 3.56367L2.25274 4.5254L2.2569 4.52657L2.52679 3.56367ZM3.13839 3.69388L2.98156 4.6815L2.98256 4.68166L3.13839 3.69388ZM3.62054 3.78367L3.4134 4.76199L3.41682 4.7627L3.62054 3.78367ZM4.12054 3.92735L3.77147 4.86446L3.77707 4.86651L4.12054 3.92735ZM4.5625 4.16082L3.97214 4.96795L3.98247 4.97552L3.993 4.98281L4.5625 4.16082ZM4.87946 4.50653L4.0077 4.99646L4.01169 5.00356L4.01579 5.01059L4.87946 4.50653ZM4.88839 5.54816L5.79063 5.97947L5.79376 5.9728L4.88839 5.54816ZM4.58036 5.95673L5.23616 6.71177L5.24578 6.7032L4.58036 5.95673ZM4.125 6.23959L3.72726 5.32207L3.72142 5.32465L4.125 6.23959ZM3.57589 6.40571L3.39602 5.42202L3.39334 5.42252L3.57589 6.40571ZM1.45219 5.35404L2.01869 6.1781L1.45219 5.35404ZM4.59688 2.26981L3.95279 3.03477L4.59688 2.26981ZM1.27694 5.95798L0.654551 6.74069L1.27694 5.95798ZM1.33358 5.43557L1.90009 6.25964L1.33358 5.43557ZM3.66071 6.94196V6.35885H1.66071V6.94196H3.66071ZM2.34821 6.35885V6.94196H4.34821V6.35885H2.34821ZM3.66071 1.80115V1.34375H1.66071V1.80115H3.66071ZM2.34821 1.34375V1.80115H4.34821V1.34375H2.34821ZM2.98214 5.45959C2.73487 5.45959 2.53171 5.43278 2.36583 5.38918L1.85739 7.32347C2.21531 7.41756 2.59251 7.45959 2.98214 7.45959V5.45959ZM2.37612 5.39194C2.18985 5.34085 2.05763 5.28044 1.96521 5.22234L0.900864 6.91562C1.18939 7.09697 1.50955 7.22813 1.84709 7.32071L2.37612 5.39194ZM1.97122 5.22615C1.94226 5.20766 1.91856 5.19057 1.89932 5.17527L0.654551 6.74069C0.731716 6.80205 0.812082 6.85895 0.89485 6.91181L1.97122 5.22615ZM1.90009 6.25964L2.01869 6.1781L0.885687 4.52998L0.767084 4.61151L1.90009 6.25964ZM1.26042 6.18891C1.41178 6.31395 1.57657 6.41641 1.74802 6.50029L2.62698 4.70379C2.5782 4.67992 2.54953 4.65966 2.53422 4.64701L1.26042 6.18891ZM1.75742 6.50483C1.95006 6.5966 2.1521 6.66162 2.35772 6.70562L2.77621 4.74989C2.70207 4.73403 2.65113 4.71523 2.61758 4.69925L1.75742 6.50483ZM2.35772 6.70562C2.57421 6.75194 2.7953 6.77265 3.01786 6.77265V4.77265C2.91898 4.77265 2.83948 4.76343 2.77621 4.74989L2.35772 6.70562ZM3.01786 6.77265C3.2305 6.77265 3.44147 6.75415 3.64843 6.71343L3.26229 4.75106C3.19544 4.76421 3.11474 4.77265 3.01786 4.77265V6.77265ZM3.64843 6.71343C3.86831 6.67016 4.08833 6.59771 4.29616 6.48424L3.33777 4.72882C3.33727 4.7291 3.31621 4.74045 3.26229 4.75106L3.64843 6.71343ZM4.28581 6.48981C4.52135 6.36479 4.73776 6.1845 4.90047 5.93904L3.23346 4.83402C3.27712 4.76815 3.32687 4.73453 3.34812 4.72325L4.28581 6.48981ZM4.90866 5.92648C5.0855 5.65082 5.15625 5.34833 5.15625 5.05878H3.15625C3.15625 5.04249 3.15823 5.01203 3.16909 4.97216C3.1802 4.93139 3.19865 4.88808 3.22526 4.84658L4.90866 5.92648ZM5.15625 5.05878C5.15625 4.58545 4.94219 4.15862 4.55218 3.87845L3.38532 5.50278C3.33358 5.4656 3.26767 5.4008 3.21828 5.30382C3.1691 5.20725 3.15625 5.11798 3.15625 5.05878H5.15625ZM4.56479 3.88766C4.30251 3.69296 4.00179 3.57567 3.71135 3.50161L3.21722 5.43961C3.28009 5.45564 3.32265 5.4711 3.34914 5.48265C3.37565 5.49421 3.38078 5.49956 3.37271 5.49357L4.56479 3.88766ZM3.71466 3.50246C3.46128 3.43694 3.18694 3.38526 2.8948 3.34519L2.62306 5.32665C2.85472 5.35842 3.05063 5.39653 3.21391 5.43876L3.71466 3.50246ZM2.90957 3.34733C2.7582 3.32426 2.60715 3.2907 2.45615 3.24631L1.89206 5.16512C2.12797 5.23447 2.3668 5.28771 2.60829 5.32451L2.90957 3.34733ZM2.47393 3.25172C2.36214 3.21659 2.26615 3.1715 2.18231 3.11841L1.11233 4.80812C1.34992 4.95857 1.60512 5.07512 1.87428 5.15971L2.47393 3.25172ZM2.18946 3.12297C2.14997 3.0975 2.13017 3.07458 2.11628 3.05231L0.419434 4.11095C0.596016 4.39399 0.829199 4.6255 1.10519 4.80356L2.18946 3.12297ZM2.12084 3.0597C2.12918 3.07333 2.13104 3.08164 2.13028 3.07863C2.12925 3.07456 2.125 3.0553 2.125 3.01592H0.125C0.125 3.38211 0.204778 3.76021 0.414871 4.10357L2.12084 3.0597ZM2.125 3.01592C2.125 2.99803 2.12685 2.99241 2.126 2.99599C2.12561 2.99767 2.12471 3.00096 2.12301 3.00543C2.12131 3.00993 2.11909 3.01487 2.11637 3.0199L0.356845 2.06908C0.193851 2.3707 0.125 2.69494 0.125 3.01592H2.125ZM2.11637 3.0199C2.12208 3.00935 2.13018 2.99764 2.15118 2.98142L0.929176 1.39817C0.694227 1.57951 0.499949 1.80426 0.356845 2.06908L2.11637 3.0199ZM2.15118 2.98143C2.1961 2.94675 2.25545 2.91188 2.33616 2.88089L1.6192 1.01381C1.37252 1.10853 1.14021 1.23529 0.929178 1.39817L2.15118 2.98143ZM2.33056 2.88302C2.43366 2.84413 2.54391 2.81442 2.66267 2.79484L2.33733 0.821484C2.09299 0.861768 1.85503 0.924849 1.6248 1.01168L2.33056 2.88302ZM2.66012 2.79526C2.79327 2.77366 2.92276 2.76327 3.04911 2.76327V0.763266C2.81236 0.763266 2.57578 0.7828 2.33988 0.821066L2.66012 2.79526ZM3.04911 2.76327C3.26911 2.76327 3.43264 2.79239 3.55268 2.83263L4.18839 0.93635C3.82629 0.81496 3.4422 0.763266 3.04911 0.763266V2.76327ZM3.56672 2.83722C3.7338 2.8905 3.83457 2.94611 3.89178 2.98795L5.07251 1.37368C4.80234 1.17607 4.49537 1.03413 4.17435 0.931758L3.56672 2.83722ZM3.89871 2.99298C3.92078 3.00883 3.93861 3.02283 3.95279 3.03477L5.24097 1.50486C5.18425 1.45711 5.12559 1.41177 5.06557 1.36865L3.89871 2.99298ZM3.98347 1.91643L3.84611 2.00614L4.93969 3.68068L5.07705 3.59098L3.98347 1.91643ZM4.64489 2.02911C4.49758 1.89874 4.33575 1.79381 4.16801 1.70945L3.26949 3.49626C3.30413 3.51368 3.3179 3.52548 3.3194 3.5268L4.64489 2.02911ZM4.168 1.70945C3.98548 1.61767 3.79432 1.55264 3.5995 1.50964L3.16835 3.46261C3.21759 3.47348 3.24964 3.48627 3.2695 3.49626L4.168 1.70945ZM3.59951 1.50964C3.40183 1.46599 3.20127 1.44571 3 1.44571V3.44571C3.06658 3.44571 3.12198 3.45237 3.16835 3.46261L3.59951 1.50964ZM3 1.44571C2.83952 1.44571 2.67663 1.45946 2.51404 1.48282L2.79846 3.46249C2.88587 3.44993 2.95215 3.44571 3 3.44571V1.44571ZM2.53451 1.48009C2.32674 1.50557 2.12256 1.55779 1.92601 1.64015L2.69899 3.48474C2.71673 3.47731 2.74171 3.46966 2.77799 3.46522L2.53451 1.48009ZM1.94826 1.63114C1.72062 1.72017 1.50421 1.85544 1.32129 2.04708L2.768 3.42803C2.72793 3.47 2.69009 3.48853 2.67674 3.49375L1.94826 1.63114ZM1.30679 2.06259C1.04431 2.34952 0.941964 2.69869 0.941964 3.0249H2.94196C2.94196 3.06453 2.93603 3.12724 2.90932 3.20201C2.88181 3.27899 2.83832 3.35149 2.78249 3.41252L1.30679 2.06259ZM0.941964 3.0249C0.941964 3.45407 1.12183 3.8497 1.45804 4.12986L2.73839 2.5934C2.78884 2.63544 2.84619 2.70106 2.88813 2.79144C2.92987 2.88139 2.94196 2.96486 2.94196 3.0249H0.941964ZM1.4821 4.14929C1.72074 4.33596 1.99243 4.45121 2.25274 4.52539L2.80083 2.60196C2.75498 2.58889 2.72675 2.57737 2.71213 2.57047C2.69758 2.56361 2.70072 2.56333 2.71433 2.57398L1.4821 4.14929ZM2.2569 4.52657C2.4825 4.5898 2.72501 4.64076 2.98156 4.6815L3.29523 2.70625C3.09939 2.67515 2.93416 2.63932 2.79667 2.60078L2.2569 4.52657ZM2.98256 4.68166C3.11515 4.70258 3.25865 4.72922 3.4134 4.76199L3.82767 2.80536C3.64313 2.76629 3.4652 2.73307 3.29422 2.70609L2.98256 4.68166ZM3.41682 4.7627C3.54139 4.78862 3.65939 4.8227 3.77148 4.86445L4.46959 2.99025C4.26025 2.91227 4.04492 2.85056 3.82425 2.80464L3.41682 4.7627ZM3.77707 4.86651C3.85919 4.89655 3.92229 4.93149 3.97214 4.96795L5.15286 3.35368C4.94081 3.19857 4.70926 3.07788 4.464 2.98818L3.77707 4.86651ZM3.993 4.98281C4.00141 4.98864 4.0046 4.99208 4.0051 4.99263C4.00552 4.99309 4.00623 4.99385 4.0077 4.99646L5.75122 4.0166C5.59718 3.7425 5.38649 3.51514 5.132 3.33882L3.993 4.98281ZM4.01579 5.01059C4.00955 4.99988 4.0051 4.99031 4.00206 4.98263C3.99906 4.97501 3.99776 4.97008 3.99741 4.96861C3.99677 4.96592 4 4.97795 4 5.00939H6C6 4.67673 5.93181 4.32575 5.74313 4.00247L4.01579 5.01059ZM4 5.00939C4 5.08436 3.98669 5.11572 3.98303 5.12353L5.79376 5.9728C5.93891 5.66333 6 5.3355 6 5.00939H4ZM3.98618 5.11687C3.96999 5.15073 3.94854 5.18031 3.91493 5.21027L5.24578 6.7032C5.47408 6.49969 5.65798 6.25689 5.79061 5.97945L3.98618 5.11687ZM3.92461 5.20176C3.8771 5.24302 3.81399 5.2845 3.72727 5.32209L4.52273 7.15709C4.78125 7.04503 5.02171 6.89793 5.23611 6.71171L3.92461 5.20176ZM3.72142 5.32465C3.62866 5.36556 3.52132 5.39911 3.39602 5.42202L3.75577 7.3894C4.02333 7.34048 4.28205 7.26328 4.52858 7.15453L3.72142 5.32465ZM3.39334 5.42252C3.26179 5.44694 3.12504 5.45959 2.98214 5.45959V7.45959C3.24401 7.45959 3.50309 7.43632 3.75844 7.38891L3.39334 5.42252ZM3.84611 2.00614C4.05196 1.87171 4.25907 1.87326 4.37826 1.89695C4.49129 1.91942 4.57256 1.96732 4.63023 2.01639L3.33406 3.53953C3.60253 3.76799 4.27499 4.11478 4.93969 3.68068L3.84611 2.00614ZM2.34821 1.80115C2.34821 1.43871 2.64203 1.1449 3.00446 1.1449V3.1449C3.7466 3.1449 4.34821 2.54328 4.34821 1.80115H2.34821ZM3.00446 2C2.64203 2 2.34821 1.70619 2.34821 1.34375H4.34821C4.34821 0.601617 3.7466 0 3.00446 0V2ZM3.66071 1.34375C3.66071 1.70619 3.3669 2 3.00446 2V0C2.26233 0 1.66071 0.601618 1.66071 1.34375H3.66071ZM1.66071 1.80115C1.66071 2.54328 2.26233 3.1449 3.00446 3.1449V1.1449C3.3669 1.1449 3.66071 1.43871 3.66071 1.80115H1.66071ZM2.34821 6.94196C2.34821 6.57953 2.64203 6.28571 3.00446 6.28571V8.28571C3.7466 8.28571 4.34821 7.6841 4.34821 6.94196H2.34821ZM2.01869 6.1781C1.82989 6.30789 1.63245 6.31706 1.50606 6.29479C1.38712 6.27383 1.29691 6.22255 1.23084 6.16348L2.5638 4.67243C2.24712 4.38933 1.54475 4.0769 0.885687 4.52998L2.01869 6.1781ZM3.95279 3.03477C3.74321 2.85829 3.66459 2.58862 3.70263 2.3572C3.73651 2.15109 3.85305 2.00161 3.98347 1.91643L5.07705 3.59098C5.38281 3.3913 5.61274 3.06731 5.67615 2.6816C5.74371 2.27058 5.61074 1.81621 5.24097 1.50486L3.95279 3.03477ZM3.00446 7.0151C2.64203 7.0151 2.34821 6.72129 2.34821 6.35885H4.34821C4.34821 5.61672 3.7466 5.0151 3.00446 5.0151V7.0151ZM3.66071 6.35885C3.66071 6.72129 3.3669 7.0151 3.00446 7.0151V5.0151C2.26233 5.0151 1.66071 5.61672 1.66071 6.35885H3.66071ZM1.89932 5.17527C2.11026 5.34299 2.19095 5.60367 2.16144 5.82455C2.13502 6.02221 2.02815 6.1716 1.90009 6.25964L0.767084 4.61151C0.454372 4.82649 0.231485 5.16735 0.179061 5.55961C0.123534 5.97509 0.268233 6.4335 0.654551 6.74069L1.89932 5.17527ZM1.66071 6.94196C1.66071 7.6841 2.26233 8.28571 3.00446 8.28571V6.28571C3.3669 6.28571 3.66071 6.57953 3.66071 6.94196H1.66071Z" fill="black" mask="url(#path-1-outside-1_16_799)"/>
<path d="M3.85714 5C3.85714 5.31559 3.34547 5.57143 2.71429 5.57143C2.14286 5.28572 1.57143 5.31559 1.57143 5C1.57143 4.74885 1.57143 4.42857 2.71429 4.42857C3.34547 4.42857 3.85714 4.68441 3.85714 5Z" fill="black"/>
<path d="M4.14286 2.99999C4.14286 3.15779 3.47339 3.28571 3 3.28571C2.52661 3.28571 2.14286 3.15779 2.14286 2.99999C2.14286 2.8422 2.52661 2.71428 3 2.71428C4.14286 2.71428 3.85714 2.71428 4.14286 2.99999Z" fill="black"/>
</svg>
